<svg width="408" height="172" viewBox="0 0 408 172" fill="none" xmlns="http://www.w3.org/2000/svg">
<g filter="url(#filter0_i_2310_171)">
<path d="M209 131C209 131 204.5 131 204.5 126.5V2C204.5 2 204.5 0 203 0H157C155 0 155 2 155 2V167C155 167 155 171.5 159 171.5L268 171C270 171 270 169 270 169V133C270 133 270 131 268 131H209Z" fill="url(#paint0_linear_2310_171)"/>
</g>
<g filter="url(#filter1_i_2310_171)">
<path d="M282 170V133C282 133 282 131 284 131H333.5C333.5 131 371 128 344 92.5C317 57 292 41.5 292 22.5V4C292 4 291.5 0 296 0H341.5C344.5 0 344.5 4 344.5 4C344.5 4 344 11 344.5 14.5C345 18 351.645 24.9838 356.5 31.5C370.56 50.3683 384.5 60.5 396 77C407.5 93.5 407.5 110.5 407.5 110.5C404.5 172 352 172 350 172H284.002C282 172 282 170 282 170Z" fill="url(#paint1_linear_2310_171)"/>
</g>
<g filter="url(#filter2_i_2310_171)">
<path d="M64.5 66C85 66 85.5 39 64.5 39H2C2 39 0 39 0 37V2C0 2 0 0 2 0H78.5C146.5 0 133 54.5 133 54.5C127 84.5 98.5 88.5 98.5 88.5C125 88.5 124 119 124 119V167.5L124 169C124 169 124 171 122 171H76C76 171 74 171 74 169V128C74 128 74 107 53 107H2C2 107 0 107 0 104.5V68C0 68 0 66 2 66H64.5Z" fill="url(#paint2_linear_2310_171)"/>
</g>
<defs>
<filter id="filter0_i_2310_171" x="155" y="0" width="115" height="175.5" filterUnits="userSpaceOnUse" color-interpolation-filters="sRGB">
<feFlood flood-opacity="0" result="BackgroundImageFix"/>
<feBlend mode="normal" in="SourceGraphic" in2="BackgroundImageFix" result="shape"/>
<feColorMatrix in="SourceAlpha" type="matrix" values="0 0 0 0 0 0 0 0 0 0 0 0 0 0 0 0 0 0 127 0" result="hardAlpha"/>
<feOffset dy="4"/>
<feGaussianBlur stdDeviation="2"/>
<feComposite in2="hardAlpha" operator="arithmetic" k2="-1" k3="1"/>
<feColorMatrix type="matrix" values="0 0 0 0 0 0 0 0 0 0 0 0 0 0 0 0 0 0 0.25 0"/>
<feBlend mode="normal" in2="shape" result="effect1_innerShadow_2310_171"/>
</filter>
<filter id="filter1_i_2310_171" x="282" y="0" width="125.5" height="176" filterUnits="userSpaceOnUse" color-interpolation-filters="sRGB">
<feFlood flood-opacity="0" result="BackgroundImageFix"/>
<feBlend mode="normal" in="SourceGraphic" in2="BackgroundImageFix" result="shape"/>
<feColorMatrix in="SourceAlpha" type="matrix" values="0 0 0 0 0 0 0 0 0 0 0 0 0 0 0 0 0 0 127 0" result="hardAlpha"/>
<feOffset dy="4"/>
<feGaussianBlur stdDeviation="2"/>
<feComposite in2="hardAlpha" operator="arithmetic" k2="-1" k3="1"/>
<feColorMatrix type="matrix" values="0 0 0 0 0 0 0 0 0 0 0 0 0 0 0 0 0 0 0.25 0"/>
<feBlend mode="normal" in2="shape" result="effect1_innerShadow_2310_171"/>
</filter>
<filter id="filter2_i_2310_171" x="0" y="0" width="134.09" height="175" filterUnits="userSpaceOnUse" color-interpolation-filters="sRGB">
<feFlood flood-opacity="0" result="BackgroundImageFix"/>
<feBlend mode="normal" in="SourceGraphic" in2="BackgroundImageFix" result="shape"/>
<feColorMatrix in="SourceAlpha" type="matrix" values="0 0 0 0 0 0 0 0 0 0 0 0 0 0 0 0 0 0 127 0" result="hardAlpha"/>
<feOffset dy="4"/>
<feGaussianBlur stdDeviation="2"/>
<feComposite in2="hardAlpha" operator="arithmetic" k2="-1" k3="1"/>
<feColorMatrix type="matrix" values="0 0 0 0 0 0 0 0 0 0 0 0 0 0 0 0 0 0 0.25 0"/>
<feBlend mode="normal" in2="shape" result="effect1_innerShadow_2310_171"/>
</filter>
<linearGradient id="paint0_linear_2310_171" x1="212.5" y1="0" x2="212.5" y2="171.5" gradientUnits="userSpaceOnUse">
<stop offset="1" stop-color="#38C51F"/>
</linearGradient>
<linearGradient id="paint1_linear_2310_171" x1="344.75" y1="0" x2="344.75" y2="172" gradientUnits="userSpaceOnUse">
<stop offset="1" stop-color="#38C51F"/>
</linearGradient>
<linearGradient id="paint2_linear_2310_171" x1="98" y1="171" x2="96" y2="1.49999" gradientUnits="userSpaceOnUse">
<stop offset="1" stop-color="#39C41F"/>
</linearGradient>
</defs>
</svg>
